<?xml version="1.0" encoding="UTF-8"?>
<svg id="Camada_2" data-name="Camada 2" xmlns="http://www.w3.org/2000/svg" viewBox="0 0 608.67 525.8">
  <defs>
    <style>
      .cls-1 {
        fill: #da974e;
      }

      .cls-2 {
        fill: #136850;
      }

      .cls-3 {
        fill: none;
      }

      .cls-4 {
        fill: #234850;
      }

      .cls-5 {
        fill: #1c8d70;
      }

      .cls-6 {
        fill: #429f8d;
      }
    </style>
  </defs>
  <g id="Camada_1-2" data-name="Camada 1">
    <g>
      <g>
        <path class="cls-6" d="m148.92,124.99c-3.73-1.7-3.21-4.49-1.99-7.53,11.15-27.99,27.89-52.1,50.48-72.01,27.93-24.62,60.45-39.99,97.42-44.08,64.49-7.14,118.89,13.66,162.73,61.7,6.45,7.06,12.38,14.42,14.18,24.15,3.51,18.99-1.49,34.41-18.69,44.97-14.29,8.78-32.21,6.38-46.06-5.8-.37-.33-.76-.63-1.15-.95-21.96-29.46-51.86-41.52-87.9-40.18-1.42.24-2.84.64-4.28.68-14.68.45-27.95,5.41-40.66,12.37-12.25,6.7-22.08,16.14-30.98,26.69-31.04,0-62.07,0-93.11,0Z"/>
        <path class="cls-6" d="m148.92,245.25c-3.73,1.7-3.21,4.49-1.99,7.53,11.15,27.99,27.89,52.1,50.48,72.01,27.93,24.62,60.45,39.99,97.42,44.08,64.49,7.14,118.89-13.66,162.73-61.7,6.45-7.06,12.38-14.42,14.18-24.15,3.51-18.99-1.49-34.41-18.69-44.97-14.29-8.78-32.21-6.38-46.06,5.8-.37.33-.76.63-1.15.95-21.96,29.46-51.86,41.52-87.9,40.18-1.42-.24-2.84-.64-4.28-.68-14.68-.45-27.95-5.41-40.66-12.37-12.25-6.7-22.08-16.14-30.98-26.69-31.04,0-62.07,0-93.11,0Z"/>
        <path class="cls-6" d="m74.49,189.43c13.2,12.7,25.96,25.1,38.88,37.31,2.66,2.51,3.71,5.12,3.62,8.73-.25,9.14-.16,18.3-.21,27.45-.01,1.65.24,3.58-1.51,4.45-1.93.96-3.04-.81-4.17-1.93-20.17-20.06-40.42-40.05-60.43-60.26-9.11-9.2-9.38-23.59-.43-32.87,20.09-20.84,41.06-40.81,60.86-61.93,1.11-1.18,2.44-1.87,4.01-1.25,1.65.65,1.84,2.23,1.84,3.76.03,10.31,0,20.63.09,30.94.02,2.49-1.43,3.93-2.97,5.48-11.62,11.67-23.23,23.35-34.83,35.05-1.15,1.16-2.24,2.39-4.74,5.08Z"/>
        <path class="cls-6" d="m220.66,180.95c-1.34,2.17-.51,4.62-.92,6.91-18.97,0-37.94-.02-56.91,0-1.97,0-4.01-.41-5.87.65-1,0-2,0-3,.02-.67-.63-1.34-.62-2.01,0-3.82-.23-6.5.73-8.85,4.46-4.16,6.61-11.1,8.47-17.74,5.96-6.75-2.55-10.76-8.46-10.38-15.29.36-6.35,5.63-12.73,11.91-14.43,6.58-1.77,13.43,1.16,17.19,7.78,1.22,2.15,2.49,3.29,4.91,3.08,1.16.85,2.5.77,3.83.77,18.43-.01,36.85-.03,55.28-.04,1.33,0,2.67.03,3.81-.83,2.93.18,6.02-.99,8.76.96Zm-90.94-2.93c-3.18.61-5.51,2.61-5.64,6.54-.13,3.88,3.15,6.99,7.1,6.62,3.93-.37,5.93-2.74,5.89-6.67-.04-3.69-3.15-6.59-7.34-6.49Z"/>
        <path class="cls-6" d="m221.68,211.46c1.38,2.57,1.83,5.39,2.18,8.24-10.46-.02-20.92.07-31.38-.13-3.29-.06-5.24.68-7.09,3.78-3.31,5.55-9.32,7.57-15.09,6.14-5.62-1.39-10.7-7.06-11.32-12.63-.6-5.44,3.93-12.44,9.36-14.46,6.47-2.4,13.68-.4,16.94,5.6,1.88,3.46,4.14,3.99,7.52,3.89,9.62-.27,19.25-.3,28.88-.43Zm-54.65,5.47c.54,2.87,2.39,5.56,6.11,5.88,3.76.33,6.91-3.12,6.96-6.91.05-3.79-2.81-6.57-6.62-6.44-3.77.13-6.54,3.03-6.44,7.47Z"/>
        <path class="cls-6" d="m228.85,147.08c-.38,2.84-1.59,5.35-3.02,7.78-3.79.02-7.58-.14-11.36.1-4.86.32-9.83-1.13-14.59.84-5.3,11.1-17.44,13.62-24.98,5.19-5.67-6.34-4.69-15.45,2.27-21,6.42-5.12,15.89-3.71,20.54,3.11.83,1.22,1.44,2.6,2.15,3.9,9.36,1.57,18.73,1.4,28.1.12.3-.07.59-.08.89-.04Zm-42.54,10.98c3.75-.4,5.8-2.64,5.82-6.53.02-4.15-2.72-5.91-6.38-6.23-3.41-.3-6.11,2.79-5.93,6.52.19,3.93,2.28,6.06,6.5,6.24Z"/>
        <path class="cls-5" d="m242.03,124.99c-.34.34-.67.68-1.01,1.02-28.6-.06-57.2-.11-85.8-.21-2.11,0-4.35.59-6.3-.8,31.04,0,62.07,0,93.11,0Z"/>
        <path class="cls-5" d="m211.9,179.99c-1.14.86-2.48.83-3.81.83-18.43.01-36.85.03-55.28.04-1.32,0-2.67.08-3.83-.77,20.97-.03,41.95-.07,62.92-.1Z"/>
        <path class="cls-5" d="m156.96,188.51c1.86-1.06,3.9-.65,5.87-.65,18.97-.02,37.94,0,56.91,0,.17.29.2.59.1.9-20.96-.09-41.92-.17-62.88-.26Z"/>
        <path class="cls-5" d="m227.96,147.12c-9.37,1.28-18.74,1.45-28.1-.12,9.37.04,18.73.08,28.1.12Z"/>
        <path class="cls-5" d="m199.89,155.8c4.76-1.97,9.73-.53,14.59-.84,3.77-.25,7.57-.08,11.36-.1-.27.42-.54.84-.81,1.26-8.38-.1-16.75-.21-25.13-.31Z"/>
        <path class="cls-5" d="m151.94,188.53c.67-.62,1.34-.63,2.01,0-.67,0-1.34,0-2.01,0Z"/>
        <path class="cls-2" d="m436.46,322.51c.39-.83,1.11-.8,1.85-.72-.62.24-1.23.48-1.85.72Z"/>
        <path class="cls-5" d="m151.02,246.21c-.48.16-.97.32-1.45.48.48-.16.97-.32,1.45-.48Z"/>
        <path class="cls-4" d="m465.96,151.96c4.41-.45,6.48,1.92,6.43,5.73-.05,3.79-2.5,6.1-6.36,6.09-3.89-.01-6.29-2.41-6.23-6.19.05-3.71,2.04-6.22,6.16-5.63Z"/>
        <path class="cls-3" d="m285.22,308.74h0c-1.39-1.42-2.75-2.86-4.16-4.26,1.41,1.4,2.77,2.84,4.16,4.26Z"/>
        <path class="cls-4" d="m474.47,218.83c-4.44.04-7.07-2.09-6.74-5.84.33-3.72,2.35-6.18,6.37-6.11,3.86.07,6.34,2.14,6.42,6.03.08,3.8-1.74,6.3-6.06,5.92Z"/>
        <path class="cls-4" d="m129.72,178.02c4.19-.1,7.3,2.79,7.34,6.49.04,3.93-1.96,6.3-5.89,6.67-3.94.37-7.22-2.74-7.1-6.62.13-3.93,2.46-5.93,5.64-6.54Z"/>
        <path class="cls-4" d="m167.03,216.93c-.1-4.44,2.68-7.34,6.44-7.47,3.82-.13,6.67,2.64,6.62,6.44-.05,3.79-3.2,7.24-6.96,6.91-3.72-.32-5.57-3.01-6.11-5.88Z"/>
        <path class="cls-4" d="m186.31,158.06c-4.21-.18-6.31-2.31-6.5-6.24-.18-3.72,2.52-6.81,5.93-6.52,3.66.32,6.41,2.08,6.38,6.23-.02,3.89-2.07,6.13-5.82,6.53Z"/>
        <path class="cls-1" d="m408.36,159.99c11.72.09,31.49.12,43.21.18.85,1.42,1.49,3.03,2.59,4.21,6.45,6.91,12.52,7.53,20.03,1.95,6.05-4.5,6.54-14.15,1.46-20.01-6.79-7.83-18.18-5.63-24.08,4.64-12.61,0-35.19.02-47.79.03,0,0-2.18-9.01-9.91-19.47-14.77-19.98-41.07-34.22-69.32-34.22-48.23,0-87.32,39.1-87.32,87.32s39.1,87.32,87.32,87.32c37.52,0,69.5-23.66,81.86-56.87,15.93-.07,31.87,0,47.8-.11,3.26-.02,5.33.67,7.14,3.82,3.02,5.27,9.8,9.59,17.87,5.45,6.25-3.21,9.21-9.67,7.36-17.31-1.24-5.1-6.78-8.41-12.92-9.03-7.71-.78-11.43,3.9-14.97,9.33-16.59-.16-33.18-.35-49.78-.04,1.71-6.42,2.72-13.12,2.91-20.02,38.24-.15,76.47-.17,114.71-.19,1.21,0,2.63-.62,3.82.83-11.8,12.17-23.57,24.32-35.34,36.46-.22.21-.45.42-.67.64-.45.42-.83.85-1.19,1.28-.55.56-1.09,1.13-1.64,1.69-.23,1.02-.47,2.04-.7,3.06,0,.26,0,.51,0,.77-.07.61-.1,1.25-.08,1.92.2,7.52.18,15.04.2,22.57,0,.91,0,1.83-.01,2.74,0,.01.01.03.02.04,0,.7,0,1.4,0,2.09.01,1.65-.24,3.58,1.51,4.45,1.93.96,3.04-.81,4.17-1.93,20.17-20.06,40.42-40.05,60.43-60.26,9.11-9.2,9.38-23.59.43-32.87-20.09-20.84-41.06-40.81-60.86-61.93-.7-.74-1.48-1.29-2.36-1.44-.82-.26-1.74-.09-2.82.91,0,.05,0,.1,0,.16-.58.78-.67,1.84-.68,2.88-.03,10.31,0,20.63-.09,30.94-.01,1.25.35,2.23.9,3.1,0,.02,0,.04,0,.06.05.05.1.1.15.15.53.77,1.21,1.47,1.92,2.17,10.19,10.23,20.36,20.48,30.54,30.73-.09.3-.27.63-.61,1.03-37.3,0-74.6,0-111.9.01-.51-8.39-.62-11.64-3.34-19.22m56.66-9.9c4.41-.45,6.48,1.92,6.43,5.73-.05,3.79-2.5,6.1-6.36,6.09-3.89-.01-6.29-2.41-6.23-6.19.05-3.71,2.04-6.22,6.16-5.63Zm-97.63,74.75c-2.28,4.51-5.42,8.33-9.41,11.41-3.99,3.14-8.73,5.48-14.2,7.13-2.05.63-4.22,1.14-6.39,1.48,0,0,0,0,0,0v.16c0,6.01-4.92,10.94-10.94,10.94s-10.81-4.8-10.93-10.7c0,0-.02,0-.03,0-4.96-.57-9.53-1.54-13.8-2.91-7.19-2.28-13.69-6.45-19.57-12.43l15.23-15.17c3.82,3.82,8.27,6.45,13.18,7.93,1.65.46,3.31.86,4.96,1.2,0,0,.01,0,.02,0v-.02c.52.1,1.04.19,1.57.27,2.98.46,6.05.71,9.19.71,2.15,0,4.13-.11,5.95-.34,1.89-.24,3.61-.61,5.16-1.11v.02s0,0,0,0c1.88-.63,3.54-1.43,4.96-2.45,3.59-2.57,5.42-6.27,5.42-11.18,0-4.16-1.26-7.47-3.76-9.93-1.2-1.14-2.57-2-4.05-2.57-.68-.29-1.54-.51-2.57-.74-1.2-.28-2.57-.51-4.16-.8l-14.37-2.17c-1.14-.17-2.28-.34-3.37-.57-3.99-.74-7.42-1.77-10.32-3.08-3.76-1.6-6.96-3.71-9.64-6.33-5.76-5.53-8.61-13.4-8.61-23.67,0-5.42.91-10.32,2.85-14.77,1.88-4.51,4.68-8.33,8.27-11.52,3.59-3.19,7.99-5.7,13.18-7.53,1.37-.46,2.79-.91,4.28-1.25,0,0,.01,0,.02,0v-.63c0-6.02,4.93-10.94,10.94-10.94,3.01,0,5.75,1.23,7.72,3.22,1.9,1.89,3.11,4.48,3.21,7.33,0,0,0,0,.01,0,4.85.46,9.24,1.43,13.23,2.79,6.22,2.17,11.92,5.76,17.06,10.84l-14.83,14.72c-3.76-3.65-7.81-5.93-12.21-6.84-1.08-.29-2.17-.46-3.25-.63-.88-.16-1.74-.29-2.6-.4-2.28-.28-4.5-.43-6.65-.43-5.45,0-9.67,1.11-12.63,3.35v-.02s-.01,0-.02.01c-.46.34-.91.74-1.31,1.14-2.97,2.97-4.45,6.56-4.45,10.72,0,1.6.23,3.14.74,4.56.51,1.48,1.37,2.85,2.62,4.05.74.68,1.54,1.25,2.4,1.82.68.4,1.37.74,2.11,1.08,1.71.8,3.88,1.37,6.5,1.65l13.29,2.05,1.08.17c5.48.8,10.1,1.94,13.69,3.36,3.59,1.48,6.67,3.48,9.3,6.1,3.25,2.91,5.65,6.56,7.07,10.84,1.48,4.28,2.22,9.13,2.22,14.54,0,5.82-1.14,11.01-3.37,15.52Zm99.41-13.72c.33-3.72,2.35-6.18,6.37-6.11,3.86.07,6.34,2.14,6.42,6.03.08,3.8-1.74,6.3-6.06,5.92-4.44.03-7.07-2.1-6.74-5.85Z"/>
      </g>
      <g>
        <path class="cls-1" d="m47.3,424.08h.14c12.85,0,24.15,5.01,33.91,15.04,3.37,3.92,5.79,7.29,7.25,10.12-.37.37-4.24,2.51-11.62,6.43-1.28-2.28-3.1-4.88-5.47-7.79-7.11-7.11-15.13-10.66-24.06-10.66s-17.04,3.6-24.06,10.8c-6.84,7.66-10.25,16.32-10.25,25.98,0,11.3,4.33,20.96,12.99,28.98,6.56,5.29,13.49,7.93,20.78,7.93h1.37c8.02,0,15.49-3.28,22.42-9.84,3.01-3.28,5.15-6.15,6.43-8.61,2.55,1.37,6.38,3.37,11.48,6.02v.41c-1.55,2.83-3.6,5.83-6.15,9.02-9.94,10.85-21.6,16.27-35,16.27s-24.93-5.33-34.86-16c-8.39-10.12-12.58-21.37-12.58-33.77v-.55c0-12.58,4.24-23.88,12.71-33.91,9.84-10.57,21.37-15.86,34.59-15.86Z"/>
        <path class="cls-1" d="m132.34,457.58c7.38,0,14.17,2.42,20.37,7.25.82.64,2.05,1.78,3.69,3.42,3.1,3.46,5.33,7.06,6.7,10.8,1.55,4.1,2.32,8.39,2.32,12.85,0,5.74-1.37,11.21-4.1,16.41-1,1.82-2.28,3.74-3.83,5.74-1.82,2.01-3.28,3.42-4.38,4.24-1.28,1-2.46,1.87-3.55,2.6-5.38,3.28-11.03,4.92-16.95,4.92h-.55c-6.2,0-12.12-1.82-17.77-5.47-1.09-.82-2.1-1.59-3.01-2.32-1.82-1.46-3.1-2.73-3.83-3.83-.91-1.09-1.82-2.28-2.73-3.55-.82-1.46-1.6-2.87-2.32-4.24-2.1-4.74-3.14-9.43-3.14-14.08v-1.09c0-5.1,1.28-10.21,3.83-15.31.73-1.46,1.59-2.92,2.6-4.38.73-1.09,1.87-2.51,3.42-4.24,2.28-2,3.87-3.28,4.79-3.83,5.65-3.92,11.8-5.88,18.46-5.88Zm-19.96,34.32c0,4.92,1.64,9.43,4.92,13.54,1.37,1.55,2.46,2.55,3.28,3.01,3.55,2.83,7.47,4.24,11.76,4.24,5.2,0,9.8-2,13.81-6.02,1.55-1.64,2.64-3.1,3.28-4.38,1.91-3.28,2.87-6.74,2.87-10.39v-.14c0-5.29-1.82-10.03-5.47-14.22-1.55-1.64-2.55-2.55-3.01-2.73-.82-.64-1.55-1.14-2.19-1.5-3.01-1.64-6.11-2.46-9.3-2.46-4.83,0-9.25,1.78-13.26,5.33-1.37,1.46-2.23,2.51-2.6,3.14-2.73,3.74-4.1,7.93-4.1,12.58Z"/>
        <path class="cls-1" d="m244.45,524.16h-13.12v-6.84c-.73.82-1.46,1.6-2.19,2.32-1.46,1.09-2.69,1.96-3.69,2.6-1.37.82-2.92,1.5-4.65,2.05-3.46,1-6.38,1.5-8.75,1.5h-.96c-5.83,0-11.48-1.64-16.95-4.92-1.09-.73-2.23-1.59-3.42-2.6-1.09-.82-2.55-2.23-4.38-4.24-1.64-2-2.92-3.92-3.83-5.74-2.83-5.2-4.24-10.71-4.24-16.54,0-4.38.77-8.61,2.32-12.71,1.37-3.64,3.64-7.25,6.84-10.8,1.55-1.64,2.73-2.78,3.55-3.42,6.2-4.83,12.99-7.25,20.37-7.25h.14c6.29,0,11.94,2.01,16.95,6.02,1.18,1,2.14,1.91,2.87,2.73v-42.25h13.12v100.08Zm-17.64-45.8c-.37-.46-1.19-1.28-2.46-2.46-1.37-1.28-2.73-2.23-4.1-2.87-3.1-1.46-5.97-2.19-8.61-2.19-5.83,0-10.8,2.28-14.9,6.84-3.46,4.1-5.2,8.75-5.2,13.95v.27c0,3.1.68,6.11,2.05,9.02.73,1.64,1.87,3.37,3.42,5.2,4.1,4.38,8.93,6.56,14.49,6.56,2.73,0,5.51-.68,8.34-2.05,1-.46,2.23-1.23,3.69-2.32.27-.27.68-.64,1.23-1.09,1.09-1.09,1.96-2.05,2.6-2.87,2.64-3.83,3.96-7.97,3.96-12.44v-.27c-.73-2.19-2.23-6.61-4.51-13.26Z"/>
        <path class="cls-1" d="m272.34,424.08h.55c1.91,0,3.78.78,5.61,2.32,1.73,1.82,2.6,3.83,2.6,6.02v.41c0,2.1-.73,4.06-2.19,5.88-1.82,1.73-3.88,2.6-6.15,2.6h-.41c-2.1,0-4.01-.82-5.74-2.46-.91-1-1.55-1.87-1.91-2.6-.46-1.18-.68-2.28-.68-3.28v-.55c0-2.1.82-4.05,2.46-5.88.18-.18.5-.46.96-.82,1.64-1.09,3.28-1.64,4.92-1.64Zm6.84,34.59v65.49h-13.26v-65.49h13.26Z"/>
        <path class="cls-6" d="m344.12,424.08h.14c12.85,0,24.15,5.01,33.91,15.04,3.37,3.92,5.79,7.29,7.25,10.12-.37.37-4.24,2.51-11.62,6.43-1.28-2.28-3.1-4.88-5.47-7.79-7.11-7.11-15.13-10.66-24.06-10.66s-17.04,3.6-24.06,10.8c-6.84,7.66-10.25,16.32-10.25,25.98,0,11.3,4.33,20.96,12.99,28.98,6.56,5.29,13.49,7.93,20.78,7.93h1.37c8.02,0,15.49-3.28,22.42-9.84,3.01-3.28,5.15-6.15,6.43-8.61,2.55,1.37,6.38,3.37,11.48,6.02v.41c-1.55,2.83-3.6,5.83-6.15,9.02-9.94,10.85-21.6,16.27-35,16.27s-24.93-5.33-34.86-16c-8.39-10.12-12.58-21.37-12.58-33.77v-.55c0-12.58,4.24-23.88,12.71-33.91,9.84-10.57,21.37-15.86,34.59-15.86Z"/>
        <path class="cls-6" d="m429.71,457.58c7.56,0,14.04,2.92,19.41,8.75v-7.52c.09,0,.18-.04.27-.14h12.85c.09,0,.18.05.27.14v65.21c-.09,0-.18.05-.27.14h-12.85l-.27-.14v-6.56c-5.11,5.56-11.67,8.34-19.69,8.34-9.94,0-18.41-4.01-25.43-12.03-5.2-6.56-7.79-13.9-7.79-22.01,0-10.12,3.87-18.82,11.62-26.11,6.38-5.38,13.67-8.07,21.88-8.07Zm-20.23,34.18c0,7.11,3.1,12.99,9.3,17.64,3.37,2.1,6.65,3.14,9.84,3.14h1.37c4.38,0,8.66-1.78,12.85-5.33,4.19-4.38,6.29-9.52,6.29-15.45,0-7.29-3.1-13.21-9.3-17.77-3.37-2-6.7-3.01-9.98-3.01h-1.09c-5.47,0-10.44,2.51-14.9,7.52-2.92,4.19-4.38,8.61-4.38,13.26Z"/>
        <path class="cls-6" d="m506.68,454.84c8.38,0,15.49,2.64,21.33,7.93,1.37,1.19,2.28,2.14,2.73,2.87.18.37.5.82.96,1.37-.09.18-1.37.96-3.83,2.32-2.28,1.46-4.74,3.01-7.38,4.65-.82-.91-1.64-1.69-2.46-2.32-3.01-2.28-6.7-3.42-11.07-3.42h-.41c-4.74,0-8.57,1.14-11.48,3.42-1.55,1.37-2.32,2.83-2.32,4.38,0,1,.41,1.78,1.23,2.32.91.73,2.6,1.55,5.06,2.46,3.55,1.09,8.98,2.28,16.27,3.55,2.28.55,4.28,1.19,6.02,1.91,1.55.64,3.14,1.5,4.79,2.6.73.55,1.73,1.46,3.01,2.73,3.37,3.65,5.06,7.75,5.06,12.3v.14c0,4.65-1.73,9.02-5.2,13.12-1.46,1.46-2.51,2.37-3.14,2.73-1.82,1.37-3.33,2.28-4.51,2.73-4.65,2.1-9.57,3.14-14.77,3.14h-.55c-6.84,0-13.08-1.78-18.73-5.33-1.28-.82-2.6-1.91-3.96-3.28-1.28-1.18-2.19-2.14-2.73-2.87-.91-1.18-1.73-2.41-2.46-3.69,2.55-1.46,6.38-3.64,11.48-6.56.09.18.27.5.55.96.55.82,1.37,1.73,2.46,2.73,2,1.91,4.56,3.33,7.66,4.24,2,.46,4.01.68,6.02.68,4.01,0,7.56-.91,10.66-2.73.64-.36,1.37-.91,2.19-1.64,1.18-1.46,1.78-2.92,1.78-4.38,0-2.46-1.91-4.42-5.74-5.88-1.28-.46-3.6-.96-6.97-1.5-7.38-1.37-12.85-2.87-16.41-4.51-1.55-.55-3.1-1.32-4.65-2.32-3.46-2.28-5.74-5.15-6.84-8.61-.55-1.55-.82-3.19-.82-4.92v-.41c0-4.28,1.59-8.34,4.79-12.17,1.37-1.46,2.37-2.37,3.01-2.73,1.55-1.18,3.01-2.1,4.38-2.73,4.56-2.19,9.57-3.28,15.04-3.28Z"/>
        <path class="cls-6" d="m550.29,424.08h13.26v38.83c2.37-1.28,5.42-2.46,9.16-3.55,2-.46,4.46-.68,7.38-.68h.68c11.76,0,20.19,4.47,25.29,13.4,1.73,3.46,2.6,7.57,2.6,12.3v39.65l-.14.14h-12.85l-.14-.14v-39.79c0-5.56-2.32-9.25-6.97-11.07-2.01-.91-4.56-1.37-7.66-1.37h-1.09c-5.47,0-9.39.87-11.76,2.6-3.01,1.82-4.51,5.24-4.51,10.25v39.51h-13.26v-100.08Z"/>
      </g>
    </g>
  </g>
</svg>